
            <svg width="441" height="48" viewBox="0 0 2356 256" fill="none" xmlns="http://www.w3.org/2000/svg" xmlns:xlink="http://www.w3.org/1999/xlink" version="1.1">
        
		<g transform="translate(0, 0)">
            
			<svg width="256" height="256" viewBox="0 0 256 256" fill="none" xmlns="http://www.w3.org/2000/svg" id="rust">
<style>
#rust {
    path.rect {fill: #242938}

    @media (prefers-color-scheme: light) {
        path.rect {fill: #F4F2ED}
    }
}
</style>
<path d="M196 0H60C26.8629 0 0 26.8629 0 60V196C0 229.137 26.8629 256 60 256H196C229.137 256 256 229.137 256 196V60C256 26.8629 229.137 0 196 0Z" fill="#242938" class="rect"/>
<path d="M225.613 125.628L217.306 120.479C217.236 119.669 217.157 118.861 217.069 118.056L224.222 111.393C224.949 110.715 225.275 109.712 225.078 108.742C224.886 107.768 224.203 106.965 223.275 106.623L214.134 103.215C213.905 102.424 213.664 101.638 213.419 100.849L219.115 92.9361C219.696 92.1315 219.815 91.0847 219.437 90.1723C219.058 89.2579 218.231 88.603 217.261 88.442L207.628 86.8747C207.253 86.144 206.863 85.4246 206.469 84.7166L210.52 75.8196C210.934 74.9147 210.848 73.8697 210.296 73.0369C209.745 72.2114 208.813 71.7288 207.817 71.7666L198.033 72.1073C197.528 71.4751 197.013 70.8486 196.489 70.2333L198.741 60.7115C198.968 59.7442 198.683 58.7239 197.979 58.0235C197.28 57.3231 196.266 57.0334 195.291 57.2605L185.773 59.5132C185.156 58.9907 184.529 58.474 183.895 57.9686L184.238 48.1818C184.275 47.1917 183.792 46.2509 182.968 45.702C182.141 45.1491 181.094 45.0658 180.185 45.4766L171.31 49.5277C170.593 49.134 169.874 48.744 169.153 48.3673L167.582 38.7319C167.424 37.7551 166.768 36.926 165.852 36.5549C164.938 36.1745 163.885 36.2975 163.09 36.8768L155.18 42.5747C154.399 42.3267 153.616 42.0882 152.833 41.861L149.426 32.7179C149.079 31.7865 148.277 31.1031 147.307 30.9101C146.334 30.7189 145.339 31.0426 144.658 31.7657L137.996 38.9212C137.192 38.8323 136.382 38.7509 135.574 38.6846L130.426 30.3554C129.906 29.513 128.984 29 127.985 29C126.986 29 126.074 29.513 125.563 30.3554L120.415 38.6846C119.605 38.7509 118.795 38.8323 117.993 38.9212L111.332 31.7657C110.657 31.0426 109.654 30.7189 108.682 30.9101C107.708 31.105 106.905 31.7865 106.562 32.7179L103.156 41.861C102.365 42.0882 101.582 42.3286 100.81 42.5747L92.8995 36.8768C92.0953 36.2956 91.0469 36.1726 90.1366 36.5549C89.2226 36.9335 88.566 37.7627 88.4069 38.7319L86.8362 48.3673C86.1096 48.744 85.3904 49.132 84.6789 49.5277L75.8034 45.4766C74.9007 45.064 73.8543 45.1491 73.0216 45.702C72.1965 46.2509 71.7139 47.1917 71.7517 48.1818L72.0924 57.9686C71.4604 58.474 70.8339 58.9907 70.2151 59.5132L60.6962 57.2605C59.7291 57.0353 58.7091 57.3231 58.009 58.0235C57.305 58.7258 57.0193 59.7385 57.2463 60.7115L59.4793 70.2333C58.9589 70.8504 58.4443 71.4751 57.9389 72.1073L48.1551 71.7666C47.1692 71.7383 46.2248 72.2114 45.676 73.0369C45.1234 73.8584 45.0402 74.9109 45.4508 75.8196L49.5007 84.7166C49.107 85.4303 48.7172 86.1496 48.3406 86.8747L38.7082 88.442C37.7297 88.6011 36.9047 89.256 36.5319 90.1723C36.1534 91.0904 36.2763 92.141 36.8536 92.9361L42.5498 100.849C42.3018 101.63 42.0615 102.416 41.8344 103.215L32.6941 106.623C31.7667 106.969 31.0835 107.772 30.8905 108.742C30.6975 109.716 31.0211 110.711 31.7459 111.393L38.8993 118.056C38.8104 118.861 38.7309 119.671 38.6627 120.479L30.355 125.628C29.5129 126.149 29 127.068 29 128.07C29 129.071 29.5129 129.982 30.355 130.494L38.6627 135.642C38.7309 136.453 38.8104 137.261 38.8993 138.065L31.7459 144.729C31.0211 145.404 30.6975 146.408 30.8905 147.378C31.0835 148.354 31.7667 149.154 32.6941 149.499L41.8344 152.906C42.0615 153.698 42.3018 154.483 42.5498 155.273L36.8536 163.185C36.2745 163.992 36.1515 165.039 36.5319 165.949C36.9122 166.867 37.7392 167.522 38.7271 167.679L48.3595 169.246C48.7361 169.977 49.1221 170.696 49.5196 171.405L45.4697 180.283C45.0573 181.185 45.1424 182.232 45.695 183.065C46.2476 183.892 47.1881 184.376 48.1741 184.335L57.9389 183.993C58.448 184.629 58.9609 185.251 59.4832 185.871L57.2501 195.393C57.023 196.358 57.3088 197.362 58.0128 198.062C58.7111 198.768 59.7273 199.05 60.7 198.823L70.2189 196.589C70.8377 197.115 71.4641 197.626 72.0962 198.13L71.7555 207.917C71.7177 208.907 72.2003 209.848 73.0253 210.396C73.8467 210.947 74.8989 211.031 75.8072 210.618L84.6827 206.567C85.3981 206.965 86.1172 207.35 86.8401 207.728L88.4107 217.363C88.5697 218.343 89.2245 219.172 90.1405 219.559C91.0544 219.939 92.1085 219.816 92.9034 219.239L100.814 213.541C101.595 213.789 102.38 214.032 103.179 214.258L106.585 223.401C106.932 224.329 107.734 225.017 108.705 225.206C109.677 225.402 110.673 225.077 111.355 224.35L118.016 217.194C118.82 217.287 119.63 217.365 120.438 217.437L125.586 225.747C126.104 226.586 127.025 227.103 128.008 227.103C128.99 227.103 129.92 226.588 130.449 225.747L135.597 217.437C136.407 217.365 137.215 217.287 138.019 217.194L144.68 224.35C145.356 225.077 146.359 225.402 147.33 225.206C148.304 225.015 149.106 224.329 149.449 223.401L152.856 214.258C153.646 214.032 154.432 213.789 155.221 213.541L163.131 219.239C163.935 219.816 164.984 219.939 165.894 219.559C166.81 219.182 167.465 218.351 167.624 217.363L169.195 207.728C169.922 207.35 170.64 206.959 171.352 206.567L180.228 210.618C181.13 211.031 182.176 210.947 183.009 210.396C183.834 209.844 184.315 208.907 184.279 207.917L183.939 198.13C184.571 197.624 185.197 197.115 185.814 196.589L195.332 198.823C196.3 199.05 197.319 198.768 198.02 198.062C198.724 197.36 199.01 196.35 198.783 195.393L196.549 185.871C197.072 185.251 197.587 184.629 198.09 183.993L207.874 184.335C208.859 184.376 209.804 183.892 210.352 183.065C210.906 182.24 210.991 181.189 210.576 180.283L206.527 171.405C206.922 170.688 207.31 169.967 207.685 169.246L217.317 167.679C218.297 167.522 219.122 166.867 219.493 165.949C219.871 165.035 219.753 163.981 219.171 163.185L213.475 155.273C213.722 154.49 213.961 153.705 214.191 152.906L223.331 149.499C224.261 149.15 224.945 148.35 225.135 147.378C225.331 146.406 225.006 145.41 224.28 144.729L217.126 138.065C217.213 137.261 217.292 136.451 217.362 135.642L225.671 130.494C226.512 129.974 227.025 129.052 227.025 128.07C227.025 127.088 226.514 126.158 225.672 125.628H225.613ZM169.976 194.723C166.797 194.038 164.791 190.899 165.472 187.719C166.151 184.538 169.276 182.513 172.455 183.194C175.635 183.874 177.659 187.018 176.978 190.198C176.297 193.379 173.174 195.404 169.995 194.723H169.976ZM167.156 175.604C164.261 174.983 161.404 176.826 160.798 179.73L157.846 193.511C148.743 197.638 138.543 199.947 127.945 199.947C117.045 199.947 106.751 197.543 97.4774 193.227L94.5251 179.446C93.9044 176.55 91.0621 174.694 88.1666 175.319L75.9983 177.931C73.7464 175.604 71.6458 173.123 69.7155 170.511H128.948C129.619 170.511 130.065 170.39 130.065 169.78V148.768C130.065 148.159 129.619 148.038 128.948 148.038H111.633V134.768H130.348C132.057 134.768 139.489 135.256 141.855 144.762C142.598 147.677 144.239 157.181 145.356 160.228C146.469 163.636 150.995 170.451 155.821 170.451H185.343C185.677 170.451 186.035 170.412 186.412 170.345C184.368 173.127 182.116 175.758 179.713 178.22L167.26 175.55L167.156 175.604ZM85.2145 194.439C82.0352 195.124 78.9126 193.099 78.2314 189.914C77.552 186.734 79.5713 183.591 82.7543 182.91C85.9336 182.23 89.0561 184.256 89.7374 187.435C90.4167 190.615 88.3957 193.757 85.2145 194.439ZM62.6946 103.385C64.0117 106.357 62.6719 109.841 59.7046 111.165C56.7335 112.485 53.2704 111.143 51.9457 108.175C50.621 105.206 51.9683 101.719 54.9357 100.394C57.9068 99.0769 61.3699 100.417 62.6946 103.385ZM55.7873 119.741L68.4665 114.1C71.1726 112.898 72.4027 109.727 71.1916 107.02L68.5801 101.114H78.837V147.303H58.2096C56.4136 140.98 55.4467 134.317 55.4467 127.427C55.4467 124.795 55.5885 122.202 55.861 119.646L55.7873 119.741ZM111.425 115.254V101.625H135.837C137.099 101.625 144.75 103.084 144.75 108.8C144.75 113.55 138.883 115.254 134.058 115.254H111.349H111.425ZM200.179 127.521C200.179 129.331 200.113 131.118 199.981 132.898H192.543C191.799 132.898 191.5 133.386 191.5 134.114V137.521C191.5 145.548 186.978 147.309 183.003 147.744C179.219 148.17 175.037 146.162 174.526 143.844C172.292 131.294 168.583 128.624 162.716 123.968C170.003 119.349 177.572 112.515 177.572 103.334C177.572 93.4718 170.817 87.2627 166.218 84.215C159.746 79.9558 152.592 79.1039 150.662 79.1039H73.8296C84.2568 67.4809 98.4312 59.2274 114.327 56.1986L123.393 65.7014C125.436 67.8406 128.823 67.9352 130.981 65.8757L141.124 56.1834C162.319 60.1398 180.297 73.3529 190.705 91.5825L183.761 107.256C182.563 109.964 183.785 113.144 186.485 114.337L199.846 120.28C200.077 122.646 200.198 125.051 200.198 127.473L200.179 127.521ZM123.347 48.2045C125.694 45.9518 129.422 46.0465 131.654 48.3956C133.888 50.743 133.812 54.4722 131.459 56.7249C129.113 58.9776 125.385 58.8829 123.152 56.5318C120.919 54.1844 120.995 50.4553 123.347 48.2026V48.2045ZM192.231 103.67C193.546 100.697 197.018 99.3533 199.99 100.678C202.961 101.996 204.305 105.486 202.98 108.459C201.665 111.431 198.192 112.775 195.221 111.449C192.25 110.132 190.906 106.641 192.231 103.67Z" fill="#CE422B"/>
</svg>

		</g>
		
		<g transform="translate(300, 0)">
            
			<svg width="256" height="256" viewBox="0 0 256 256" fill="none" xmlns="http://www.w3.org/2000/svg">
<g clip-path="url(#clip0_306_106)">
<rect width="256" height="256" rx="60" fill="url(#paint0_linear_306_106)"/>
<path d="M143.426 232.018C142.879 229.824 143.974 227.08 142.879 224.886C142.331 222.691 140.689 222.691 140.142 221.045C137.952 216.656 135.215 211.718 135.215 206.231C135.215 201.842 133.572 197.453 133.025 193.064C133.025 190.869 133.025 188.674 133.025 186.48C133.025 185.382 133.025 184.285 132.478 183.188C132.478 182.639 132.478 181.542 131.93 181.542L132.478 179.896C132.478 179.347 137.404 179.347 139.047 179.347C141.784 179.347 143.974 179.347 146.711 179.896C152.185 179.896 156.564 179.896 162.039 179.347C173.535 177.701 178.462 172.763 181.199 171.117C191.6 163.985 196.527 151.366 196.527 151.366C198.169 147.525 198.169 140.392 202.001 137.649C206.38 133.809 213.497 134.357 218.424 132.163C221.161 131.065 223.351 129.968 226.635 130.517C228.825 131.065 232.657 133.809 233.752 129.968C233.204 129.419 232.657 128.871 232.109 128.322C236.489 127.773 232.109 118.446 230.467 116.251C227.73 113.508 223.898 111.862 219.519 110.765C214.044 109.119 209.117 107.473 204.191 108.57C195.432 110.216 195.979 105.278 191.052 105.278C185.031 105.278 174.082 105.827 171.892 111.862C170.798 114.605 170.25 114.605 168.608 116.8C167.513 118.446 168.608 120.092 168.06 122.287C167.513 124.481 166.418 132.163 165.323 134.906C163.681 139.295 161.491 144.782 157.659 144.782C152.185 145.33 147.806 145.879 143.426 144.233C140.689 143.136 136.31 141.49 134.12 140.941C123.719 136.552 122.076 132.163 122.076 132.163C120.982 130.517 118.244 127.225 117.15 123.384C116.055 118.995 113.865 115.703 113.318 113.508C112.223 111.314 110.58 107.473 108.938 103.632C106.748 98.6944 104.011 94.8538 101.822 93.2078C98.537 90.4645 95.7999 86.0752 89.2307 87.1725C88.1359 87.1725 83.7565 87.7212 80.4719 90.4645C78.2822 92.1105 77.7348 95.9511 75.545 99.243C74.4502 100.889 72.2605 106.376 70.6182 110.765C69.5233 114.057 68.9759 116.251 67.3336 117.349C66.2388 118.446 65.1439 119.543 63.5016 118.995C62.4068 118.446 61.3119 117.897 60.2171 117.349C58.5748 116.251 55.2902 110.216 53.1005 106.376C51.4582 102.535 47.6262 97.0484 45.4365 94.3051C42.1519 89.9158 40.5097 88.8185 35.5828 88.8185C25.7291 88.8185 24.6343 94.3051 20.2548 102.535C18.0651 106.376 17.5177 111.862 13.6857 116.251C12.0434 118.446 4.92685 128.871 0 130.517V206.231V205.683C0.547428 204.585 0.547428 203.488 1.09486 202.94C3.28457 199.099 7.66399 195.258 9.8537 190.869C10.9486 188.674 12.5908 186.48 13.6857 183.736C14.2331 182.09 14.7806 178.799 15.8754 177.153C16.9703 174.958 19.16 174.409 21.3497 173.861C25.1817 173.312 27.9188 178.799 32.2982 180.993C33.9405 182.09 42.6994 184.834 45.4365 185.382C49.8159 186.48 54.1954 187.028 58.5748 188.126C60.7645 188.674 62.9542 188.674 65.6913 189.223C67.8811 189.223 76.0925 189.772 76.0925 190.32C72.2605 192.515 69.5233 198.002 67.8811 202.391C66.2388 206.78 65.1439 211.718 63.5016 215.559C61.3119 219.948 56.9325 222.143 57.4799 227.629C57.4799 229.824 58.0274 232.018 57.4799 234.213C56.9325 236.956 55.8376 238.602 55.2902 241.346C54.1954 244.638 53.1005 255.062 52.0056 257.805L60.7645 256.708C61.8593 254.513 62.4068 244.638 62.9542 243.54C64.5965 238.602 66.7862 234.762 70.0708 230.921C73.3553 227.08 73.3553 222.691 74.9976 218.302C77.1873 213.364 79.9245 210.072 82.6616 205.683C87.5885 198.002 90.873 187.577 100.727 185.382C101.822 185.382 107.843 189.772 110.58 192.515C113.865 195.807 117.15 199.099 119.339 203.488C123.171 211.718 127.003 223.789 128.098 229.824C128.646 233.664 129.193 233.664 131.93 236.956C133.025 238.054 135.215 242.443 136.31 244.089C136.857 245.735 138.499 249.575 139.047 251.77C139.594 252.867 141.236 256.708 142.331 260H150.543C147.258 250.673 144.521 241.346 143.426 232.018Z" fill="white"/>
</g>
<defs>
<linearGradient id="paint0_linear_306_106" x1="127.705" y1="0.119888" x2="127.705" y2="257.041" gradientUnits="userSpaceOnUse">
<stop stop-color="#F29100"/>
<stop offset="1" stop-color="#EC670F"/>
</linearGradient>
<clipPath id="clip0_306_106">
<rect width="256" height="256" rx="60" fill="white"/>
</clipPath>
</defs>
</svg>

		</g>
		
		<g transform="translate(600, 0)">
            
			<svg xmlns="http://www.w3.org/2000/svg" width="256" height="256" fill="none" viewBox="0 0 256 256" id="java">
<style>
#java {
    rect {fill: #242938}

    @media (prefers-color-scheme: light) {
        rect {fill: #F4F2ED}
        path.mug {fill: #4E7896}
    }
}
</style>
<rect width="256" height="256" fill="#242938" rx="60"/>
<path fill="#fff" d="M101.634 182.619C101.634 182.619 93.9548 187.293 106.979 188.63C122.707 190.634 131.023 190.299 148.386 186.962C148.386 186.962 153.06 189.971 159.406 192.306C120.331 209.002 70.9089 191.304 101.634 182.619ZM96.6252 160.914C96.6252 160.914 88.2753 167.26 101.299 168.593C118.327 170.262 131.69 170.597 154.732 165.926C154.732 165.926 157.741 169.267 162.747 170.936C115.664 184.961 62.8975 172.269 96.6252 160.917V160.914ZM188.795 198.984C188.795 198.984 194.471 203.658 182.449 207.334C160.073 214.012 88.6104 216.019 68.5735 207.334C61.564 204.325 74.9197 199.982 79.2587 199.319C83.6012 198.317 85.9366 198.317 85.9366 198.317C78.2569 192.973 34.8424 209.337 63.8959 214.046C143.709 227.073 209.499 208.37 188.792 199.018L188.795 198.984ZM105.307 138.203C105.307 138.203 68.9052 146.888 92.2793 149.89C102.298 151.223 122 150.892 140.368 149.555C155.396 148.221 170.458 145.548 170.458 145.548C170.458 145.548 165.113 147.886 161.441 150.222C124.342 159.915 53.2107 155.573 73.5827 145.554C90.9526 137.204 105.307 138.203 105.307 138.203V138.203ZM170.423 174.604C207.83 155.234 190.46 136.534 178.438 138.873C175.429 139.54 174.096 140.207 174.096 140.207C174.096 140.207 175.097 138.203 177.436 137.54C201.145 129.19 219.849 162.586 169.757 175.61C169.757 175.61 170.092 175.275 170.423 174.608V174.604ZM108.979 227.364C145.046 229.703 200.147 226.03 201.484 208.995C201.484 208.995 198.817 215.673 171.764 220.683C141.042 226.359 102.968 225.692 80.5957 222.016C80.5957 222.016 85.2698 226.023 108.982 227.36L108.979 227.364Z" class="mug" />
<path fill="#F58219" d="M147.685 28C147.685 28 168.389 49.0388 127.983 80.7594C95.5891 106.472 120.632 121.168 127.983 137.861C108.948 120.833 95.2609 105.802 104.606 91.7762C118.331 71.0828 156.062 61.0644 147.685 28ZM137 123.842C146.683 134.862 134.333 144.881 134.333 144.881C134.333 144.881 159.044 132.195 147.692 116.494C137.338 101.466 129.324 94.1184 172.738 69.0689C172.738 69.0689 104.278 86.0968 137.007 123.835L137 123.842Z"/>
</svg>

		</g>
		
		<g transform="translate(900, 0)">
            
			<svg width="256" height="256" viewBox="0 0 256 256" fill="none" xmlns="http://www.w3.org/2000/svg">
<rect width="256" height="256" rx="60" fill="#394AAB"/>
<path d="M134.001 33C169.144 33 199.828 52.0863 216.262 80.4561L216.102 80.183L174.753 103.991C166.607 90.1977 151.672 80.8892 134.54 80.6975L134.001 80.6945C107.875 80.6945 86.6945 101.874 86.6945 127.999C86.6945 136.543 88.9723 144.552 92.9335 151.469C101.088 165.704 116.416 175.306 134.001 175.306C151.693 175.306 167.109 165.582 175.222 151.195L175.025 151.54L216.311 175.458C200.057 203.588 169.794 222.615 135.059 222.994L134.001 223C98.746 223 67.9753 203.796 51.582 175.276C43.5791 161.353 39 145.212 39 127.999C39 75.5334 81.5323 33 134.001 33Z" fill="white"/>
</svg>

		</g>
		
		<g transform="translate(1200, 0)">
            
			<svg xmlns="http://www.w3.org/2000/svg" width="256" height="256" fill="none" viewBox="0 0 256 256" id="mysql">
<style>
#mysql {
    rect {fill: #242938}

    @media (prefers-color-scheme: light) {
        rect {fill: #F4F2ED}
        path {fill: #00678C}
    }
}
</style>
<rect width="256" height="256" fill="#242938" rx="60"/>
<g clip-path="url(#clip0_7_147)">
<path fill="#fff" fill-rule="evenodd" d="M203.801 178.21C194.011 177.938 186.416 178.941 180.051 181.619C178.218 182.355 175.277 182.355 175.035 184.662C176.015 185.63 176.133 187.214 176.992 188.556C178.459 190.991 181.033 194.271 183.357 195.973L191.191 201.571C195.965 204.488 201.351 206.193 206.002 209.113C208.696 210.817 211.388 213.007 214.082 214.834C215.454 215.807 216.285 217.392 218 217.997V217.629C217.144 216.538 216.897 214.957 216.044 213.735L212.367 210.209C208.82 205.465 204.41 201.325 199.636 197.922C195.718 195.245 187.152 191.596 185.56 187.097L185.319 186.824C188.008 186.552 191.191 185.605 193.764 184.875C197.929 183.784 201.721 184.024 206.002 182.93L211.882 181.226V180.135C209.678 177.946 208.087 175.025 205.763 172.959C199.521 167.606 192.661 162.373 185.56 157.994C181.766 155.562 176.868 153.977 172.829 151.913C171.356 151.182 168.911 150.817 168.055 149.601C165.846 146.929 164.625 143.397 163.034 140.232L152.997 119.064C150.794 114.319 149.444 109.574 146.755 105.195C134.144 84.5124 120.431 71.9828 99.375 59.6932C94.8477 57.1382 89.4616 56.0393 83.7353 54.7032L74.5546 54.2124C72.5928 53.3616 70.6364 51.0493 68.9216 49.9531C61.9441 45.5739 43.9475 36.0847 38.8029 48.5897C35.4966 56.4974 43.7006 64.2824 46.4855 68.299C48.5708 71.0966 51.2597 74.2597 52.7332 77.4228C53.5563 79.4897 53.8307 81.682 54.6895 83.8717C56.6458 89.2243 58.4842 95.1878 61.0551 100.178C62.427 102.733 63.8675 105.413 65.5824 107.723C66.5619 109.086 68.2768 109.67 68.6417 111.859C66.9268 114.294 66.8089 117.94 65.8293 120.986C61.42 134.734 63.1349 151.766 69.377 161.888C71.3389 164.928 75.9622 171.622 82.2345 169.065C87.744 166.875 86.5148 159.941 88.1062 153.857C88.4766 152.399 88.2297 151.425 88.9623 150.449V150.722L93.9834 160.819C97.7781 166.78 104.391 172.986 109.897 177.125C112.833 179.315 115.16 183.089 118.831 184.425V184.057H118.59C117.854 182.966 116.751 182.475 115.772 181.624C113.569 179.435 111.121 176.757 109.406 174.325C104.267 167.513 99.7399 159.968 95.6983 152.183C93.7365 148.412 92.0216 144.275 90.4357 140.504C89.6949 139.043 89.6949 136.85 88.4739 136.125C86.6355 138.797 83.9466 141.115 82.5939 144.398C80.2672 149.628 80.0257 156.077 79.1697 162.769C78.6758 162.891 78.8953 162.769 78.6758 163.041C74.7631 162.071 73.4132 158.051 71.9453 154.648C68.274 146.01 67.6594 132.141 70.8422 122.164C71.6983 119.609 75.375 111.579 73.9071 109.146C73.1662 106.834 70.7242 105.498 69.3743 103.671C67.7829 101.359 66.0735 98.4409 64.9705 95.8859C62.0346 89.0689 60.5667 81.5293 57.3812 74.7151C55.9077 71.552 53.3396 68.2662 51.257 65.3486C48.9303 62.0628 46.3648 59.7505 44.5265 55.8593C43.9146 54.4959 43.0585 52.3309 44.0381 50.8693C44.2795 49.8959 44.7734 49.5059 45.7475 49.2878C47.3389 47.9244 51.8716 49.6532 53.463 50.3785C57.9903 52.2054 61.7849 53.907 65.5796 56.4592C67.2945 57.6754 69.1329 59.9877 71.3361 60.5985H73.9098C77.8279 61.4493 82.2317 60.8712 85.9002 61.9619C92.3893 64.0343 98.2637 67.0719 103.532 70.3604C119.567 80.4577 132.792 94.8143 141.725 111.971C143.193 114.769 143.805 117.324 145.155 120.244C147.729 126.208 150.912 132.289 153.477 138.132C156.051 143.85 158.498 149.694 162.17 154.438C164.008 156.993 171.35 158.329 174.654 159.668C177.104 160.759 180.896 161.741 183.105 163.077C187.264 165.632 191.427 168.552 195.342 171.35C197.298 172.806 203.423 175.849 203.787 178.276L203.801 178.21ZM78.9584 72.4873C77.267 72.4724 75.5809 72.6769 73.9427 73.0954V73.3681H74.1842C75.1637 75.315 76.8786 76.6538 78.1023 78.3581L80.9202 84.1989L81.1616 83.9262C82.8765 82.71 83.7353 80.7631 83.7353 77.8454C83 76.9947 82.8793 76.1412 82.2674 75.2904C81.5321 74.0743 79.9407 73.4635 78.9584 72.4928V72.4873Z" clip-rule="evenodd"/>
</g>
<defs>
<clipPath id="clip0_7_147">
<rect width="180" height="180" fill="#fff" transform="translate(38 38)"/>
</clipPath>
</defs>
</svg>

		</g>
		
		<g transform="translate(1500, 0)">
            
			<svg xmlns="http://www.w3.org/2000/svg" width="256" height="256" fill="none" viewBox="0 0 256 256" id="python">
<style>
#python {
    rect {fill: #242938}

    @media (prefers-color-scheme: light) {
        rect {fill: #F4F2ED}
    }
}
</style>
<rect width="256" height="256" fill="#242938" rx="60"/>
<path fill="url(#paint0_linear_2_47)" d="M127.279 29C76.5066 29 79.6772 51.018 79.6772 51.018L79.7338 73.8284H128.185V80.6772H60.4893C60.4893 80.6772 28 76.9926 28 128.222C28 179.452 56.3573 177.636 56.3573 177.636H73.2812V153.863C73.2812 153.863 72.369 125.506 101.186 125.506H149.24C149.24 125.506 176.239 125.942 176.239 99.4123V55.5461C176.239 55.5461 180.338 29 127.279 29ZM100.563 44.339C105.384 44.339 109.28 48.2351 109.28 53.0556C109.28 57.8761 105.384 61.7723 100.563 61.7723C95.7426 61.7723 91.8465 57.8761 91.8465 53.0556C91.8465 48.2351 95.7426 44.339 100.563 44.339Z"/>
<path fill="url(#paint1_linear_2_47)" d="M128.721 227.958C179.493 227.958 176.323 205.941 176.323 205.941L176.266 183.13H127.815V176.281H195.511C195.511 176.281 228 179.966 228 128.736C228 77.5062 199.643 79.323 199.643 79.323H182.719V103.096C182.719 103.096 183.631 131.453 154.814 131.453H106.76C106.76 131.453 79.7607 131.016 79.7607 157.546V201.412C79.7607 201.412 75.6615 227.958 128.721 227.958ZM155.437 212.619C150.616 212.619 146.72 208.723 146.72 203.903C146.72 199.082 150.616 195.186 155.437 195.186C160.257 195.186 164.154 199.082 164.154 203.903C164.154 208.723 160.257 212.619 155.437 212.619Z"/>
<defs>
<linearGradient id="paint0_linear_2_47" x1="47.22" x2="146.333" y1="46.896" y2="145.02" gradientUnits="userSpaceOnUse">
<stop stop-color="#387EB8"/>
<stop offset="1" stop-color="#366994"/>
</linearGradient>
<linearGradient id="paint1_linear_2_47" x1="108.056" x2="214.492" y1="109.905" y2="210.522" gradientUnits="userSpaceOnUse">
<stop stop-color="#FFE052"/>
<stop offset="1" stop-color="#FFC331"/>
</linearGradient>
</defs>
</svg>

		</g>
		
		<g transform="translate(1800, 0)">
            
			<svg xmlns="http://www.w3.org/2000/svg" width="256" height="256" fill="none" viewBox="0 0 256 256">
<rect width="256" height="256" fill="#2396ED" rx="60"/>
<path d="M141.187 122.123H161.904V103.379H141.187V122.123ZM116.525 122.123H137.241V103.379H116.525V122.123ZM92.3554 122.123H113.072V103.379H92.3554V122.123ZM68.1859 122.123H88.4093V103.379H68.1859V122.123ZM43.5233 122.123H64.2399V103.379H43.5233V122.123ZM68.1859 99.4333H88.4093V80.6896H68.1859V99.4333ZM92.3554 99.4333H113.072V80.6896H92.3554V99.4333ZM116.525 99.4333H137.241V80.6896H116.525V99.4333ZM116.525 76.7436H137.241V58H116.525V76.7436ZM228 113.738C228 113.738 219.121 105.352 200.871 108.312C198.898 94.0075 183.607 85.6222 183.607 85.6222C183.607 85.6222 169.303 102.886 179.661 122.123C176.702 123.603 171.769 125.576 164.37 125.576H28.7257C26.2594 134.948 26.2594 197.097 94.3284 197.097C143.16 197.097 179.661 174.408 196.925 132.974C222.574 134.948 228 113.738 228 113.738Z" fill="#fff" />
</svg>

		</g>
		
		<g transform="translate(2100, 0)">
            
			<svg width="256" height="256" viewBox="0 0 256 256" fill="none" xmlns="http://www.w3.org/2000/svg" id="git">
<style>
#git {
    path.rect {fill: #242938}

    @media (prefers-color-scheme: light) {
        path.rect {fill: #F4F2ED}
    }
}
</style>
<path d="M196 0H60C26.8629 0 0 26.8629 0 60V196C0 229.137 26.8629 256 60 256H196C229.137 256 256 229.137 256 196V60C256 26.8629 229.137 0 196 0Z" fill="#242938" class="rect" />
<path d="M223.295 119.23L136.838 32.7376C135.655 31.5526 134.249 30.6127 132.702 29.9714C131.155 29.33 129.496 29 127.822 29C126.148 29 124.489 29.33 122.942 29.9714C121.395 30.6127 119.989 31.5526 118.806 32.7376L100.86 50.6911L123.633 73.4735C128.93 71.6162 134.995 72.8853 139.214 77.1075C141.223 79.1209 142.626 81.6591 143.262 84.432C143.898 87.2049 143.741 90.1009 142.81 92.789L164.76 114.748C170.07 112.916 176.196 114.097 180.434 118.351C181.844 119.761 182.962 121.435 183.725 123.278C184.487 125.12 184.879 127.094 184.879 129.088C184.878 131.082 184.486 133.056 183.723 134.899C182.959 136.74 181.841 138.414 180.431 139.824C179.022 141.234 177.349 142.352 175.508 143.114C173.666 143.878 171.693 144.27 169.699 144.269C167.706 144.269 165.732 143.876 163.891 143.113C162.05 142.35 160.376 141.231 158.967 139.821C154.512 135.363 153.411 128.801 155.663 123.309L135.193 102.83V156.722C136.679 157.457 138.036 158.428 139.214 159.595C140.623 161.004 141.741 162.677 142.505 164.52C143.267 166.361 143.659 168.335 143.659 170.329C143.659 172.323 143.267 174.297 142.505 176.139C141.741 177.981 140.623 179.655 139.214 181.065C137.806 182.474 136.132 183.593 134.292 184.355C132.45 185.118 130.477 185.511 128.484 185.511C126.491 185.511 124.518 185.118 122.677 184.355C120.836 183.593 119.162 182.474 117.753 181.065C116.343 179.655 115.224 177.982 114.46 176.141C113.696 174.298 113.303 172.323 113.303 170.329C113.303 168.335 113.696 166.361 114.46 164.519C115.224 162.676 116.343 161.003 117.753 159.595C119.22 158.134 120.848 157.025 122.723 156.282V101.889C120.916 101.146 119.22 100.051 117.753 98.5774C115.623 96.4483 114.174 93.7326 113.592 90.7766C113.011 87.8205 113.322 84.7581 114.486 81.9797L92.0228 59.5193L32.739 118.766C31.5537 119.951 30.6134 121.357 29.9718 122.905C29.3302 124.454 29 126.113 29 127.789C29 129.465 29.3302 131.125 29.9718 132.673C30.6134 134.221 31.5537 135.628 32.739 136.812L119.202 223.298C120.385 224.483 121.791 225.423 123.338 226.065C124.885 226.706 126.544 227.036 128.218 227.036C129.892 227.036 131.551 226.706 133.098 226.065C134.645 225.423 136.051 224.483 137.234 223.298L223.295 137.338C224.48 136.154 225.421 134.747 226.062 133.199C226.704 131.651 227.034 129.992 227.034 128.316C227.034 126.64 226.704 124.979 226.062 123.431C225.421 121.883 224.48 120.476 223.295 119.292" fill="#F1502F"/>
</svg>

		</g>
		</svg>